<?xml version="1.0" encoding="UTF-8"?>
<svg version="1.1" xmlns="http://www.w3.org/2000/svg" width="546" height="177">
<path d="M0 0 C180.18 0 360.36 0 546 0 C546 58.41 546 116.82 546 177 C365.82 177 185.64 177 0 177 C0 118.59 0 60.18 0 0 Z " fill="#FEFEFE" transform="translate(0,0)"/>
<path d="M0 0 C9.99746892 8.28757824 15.96841302 19.31361585 18.8125 31.875 C19.99633015 49.3364947 17.83001726 63.94580145 6.0625 77.5625 C5.50046875 78.23023437 4.9384375 78.89796875 4.359375 79.5859375 C-4.31405698 89.09755828 -16.54432995 94.6836069 -29.27734375 95.875 C-43.68908294 96.38458636 -56.18158558 91.66877352 -67.0625 82.375 C-76.81808813 73.19415969 -84.46223793 60.6756348 -85.10546875 46.98828125 C-85.30234355 29.94099557 -81.29466755 16.15447618 -69.18359375 3.67578125 C-49.22995905 -15.09798636 -21.99427407 -16.04169531 0 0 Z " fill="#FBFDFD" transform="translate(189.9375,36.4375)"/>
<path d="M0 0 C3.3 0 6.6 0 10 0 C10 4.95 10 9.9 10 15 C19.24 15 28.48 15 38 15 C38 29.19 38 43.38 38 58 C35.03 58 32.06 58 29 58 C29 56.35 29 54.7 29 53 C22.73 53 16.46 53 10 53 C10 62.9 10 72.8 10 83 C6.7 83 3.4 83 0 83 C0 72.77 0 62.54 0 52 C-5.94 52 -11.88 52 -18 52 C-18 54.31 -18 56.62 -18 59 C-21.3 59 -24.6 59 -28 59 C-28 44.48 -28 29.96 -28 15 C-18.76 15 -9.52 15 0 15 C0 10.05 0 5.1 0 0 Z " fill="#09A5A0" transform="translate(152,37)"/>
<path d="M0 0 C13.32393793 10.65579419 22.06583623 23.19674943 26 40 C26.27231169 43.29697947 26.27992361 46.56844066 26.25 49.875 C26.26160156 51.14537109 26.26160156 51.14537109 26.2734375 52.44140625 C26.22102423 69.5543392 19.22173698 84.30298168 7.6875 96.75 C-5.04085056 108.76004636 -20.74747165 113.50529222 -37.90625 113.20703125 C-53.04911876 112.6367245 -66.80314683 105.47864034 -77.375 94.890625 C-90.46831201 80.47239452 -94.95417475 64.08176643 -94.13916016 45.11962891 C-93.20980699 30.96411273 -85.66190903 16.49492334 -75.83203125 6.46875 C-54.4150606 -12.20094028 -24.18185917 -16.73329223 0 0 Z M-76.25 19.6875 C-84.67840266 31.62173396 -87.49613084 45.61741471 -86 60 C-83.32486997 74.1785308 -75.43299875 87.32410105 -63.62109375 95.68359375 C-51.18940517 103.48501334 -38.26460498 107.252921 -23.58203125 104.31640625 C-9.28284076 100.19919609 3.30306897 92.60514251 10.9375 79.4375 C11.65856163 77.97440041 12.34594051 76.49425448 13 75 C13.37769531 74.15179688 13.75539063 73.30359375 14.14453125 72.4296875 C19.5707731 59.58310786 19.98804851 44.06195135 14.8125 31.00390625 C8.57312168 17.69436283 -0.62252608 6.95181525 -14.625 1.625 C-16.40788164 1.0550831 -18.19945109 0.51136666 -20 0 C-21.12341797 -0.33644531 -21.12341797 -0.33644531 -22.26953125 -0.6796875 C-43.25338147 -6.19976341 -62.9745427 3.53511592 -76.25 19.6875 Z " fill="#0BA5A1" transform="translate(191,27)"/>
<path d="M0 0 C4.29 0 8.58 0 13 0 C14.71164519 3.85272448 16.41935351 7.70712031 18.125 11.5625 C18.599375 12.62919922 19.07375 13.69589844 19.5625 14.79492188 C23.24694696 23.13471735 26.60812496 31.52031241 30 40 C30.33 26.8 30.66 13.6 31 0 C34.63 0 38.26 0 42 0 C42 22.77 42 45.54 42 69 C38.04 69 34.08 69 30 69 C29.62713867 68.10804932 29.25427734 67.21609863 28.87011719 66.29711914 C27.46959636 62.94757532 26.06774946 59.59858778 24.66552734 56.24975586 C24.0619825 54.807847 23.45878427 53.365793 22.85595703 51.92358398 C21.98303699 49.83537974 21.10881855 47.74772291 20.234375 45.66015625 C19.83880402 44.71270287 19.83880402 44.71270287 19.4352417 43.74610901 C17.35941751 38.79574195 15.18166627 33.9087491 13 29 C12.67 42.53 12.34 56.06 12 70 C8.04 70 4.08 70 0 70 C0 46.9 0 23.8 0 0 Z " fill="#09A5A0" transform="translate(237,42)"/>
<path d="M0 0 C5.28 0 10.56 0 16 0 C24.76048559 37.78689449 24.76048559 37.78689449 28.5625 54.6875 C28.93882568 56.33939331 28.93882568 56.33939331 29.32275391 58.0246582 C29.54753418 59.03101318 29.77231445 60.03736816 30.00390625 61.07421875 C30.19799072 61.93619873 30.3920752 62.79817871 30.59204102 63.6862793 C31 66 31 66 31 70 C27.04 70 23.08 70 19 70 C18.01 62.575 18.01 62.575 17 55 C11.06 55 5.12 55 -1 55 C-1.12375 56.36125 -1.2475 57.7225 -1.375 59.125 C-1.79437968 62.97235271 -2.60434547 66.37129822 -4 70 C-7.63 70 -11.26 70 -15 70 C-13.71884059 61.99349684 -12.22979017 54.08547205 -10.46875 46.171875 C-10.11387512 44.56110077 -10.11387512 44.56110077 -9.75183105 42.91778564 C-9.25575423 40.6688304 -8.7582207 38.42019602 -8.25927734 36.171875 C-7.49900303 32.74550689 -6.74326074 29.31816328 -5.98828125 25.890625 C-5.50286698 23.69265028 -5.01719869 21.49473163 -4.53125 19.296875 C-4.30723511 18.28212097 -4.08322021 17.26736694 -3.85241699 16.22186279 C-2.64639844 10.79250508 -1.37709786 5.38857433 0 0 Z " fill="#0BA6A1" transform="translate(398,42)"/>
<path d="M0 0 C5.28 0 10.56 0 16 0 C17.8096996 8.24059016 19.61811845 16.48145823 21.42430782 24.72281837 C22.2631156 28.54992495 23.10247575 32.3769086 23.94311523 36.20361328 C24.75491861 39.89915036 25.56524881 43.59500769 26.37457466 47.2910881 C26.68302942 48.69853505 26.99200763 50.10586739 27.30152702 51.5130806 C27.73619211 53.48969532 28.16879471 55.46676324 28.60131836 57.44384766 C28.97105019 59.12929184 28.97105019 59.12929184 29.34825134 60.8487854 C29.97725913 63.89004754 30.51152978 66.93332689 31 70 C27.04 70 23.08 70 19 70 C18.01 62.575 18.01 62.575 17 55 C11.06 55 5.12 55 -1 55 C-1.309375 57.289375 -1.61875 59.57875 -1.9375 61.9375 C-2.875 68.875 -2.875 68.875 -4 70 C-5.85287502 70.07226502 -7.70833878 70.0838122 -9.5625 70.0625 C-11.08037109 70.04896484 -11.08037109 70.04896484 -12.62890625 70.03515625 C-13.41136719 70.02355469 -14.19382812 70.01195313 -15 70 C-14.34406617 62.69512988 -12.960644 55.70421843 -11.34765625 48.5546875 C-11.08746201 47.38543732 -10.82726776 46.21618713 -10.55918884 45.01150513 C-10.01086942 42.55192578 -9.4602559 40.09285686 -8.9074707 37.63427734 C-8.06385967 33.88104916 -7.22762691 30.1262352 -6.39257812 26.37109375 C-5.85720267 23.97386185 -5.32140957 21.57672318 -4.78515625 19.1796875 C-4.41161766 17.50445511 -4.41161766 17.50445511 -4.03053284 15.79537964 C-3.79366257 14.74383698 -3.5567923 13.69229431 -3.31274414 12.60888672 C-3.00416222 11.23396561 -3.00416222 11.23396561 -2.68934631 9.83126831 C-1.88561841 6.53021438 -0.93336217 3.26676761 0 0 Z " fill="#0AA5A0" transform="translate(301,42)"/>
<path d="M0 0 C3.63 0 7.26 0 11 0 C11.33 9.57 11.66 19.14 12 29 C16.62 19.43 21.24 9.86 26 0 C30.29 0 34.58 0 39 0 C37.41066733 3.97333169 35.72845825 7.45737334 33.671875 11.18359375 C33.0301735 12.36986101 32.38958126 13.55672888 31.75 14.74414062 C30.75017463 16.59740944 29.74499003 18.44649917 28.72070312 20.28637695 C27.72715219 22.07586516 26.76020701 23.87769963 25.796875 25.68359375 C25.21260742 26.75150146 24.62833984 27.81940918 24.02636719 28.91967773 C22.37048442 33.88929546 24.40348311 36.77437115 26.60400391 41.2956543 C27.22194824 42.46008057 27.83989258 43.62450684 28.4765625 44.82421875 C29.1537152 46.11259375 29.83079647 47.4010063 30.5078125 48.68945312 C31.57035468 50.69836818 32.63492589 52.7061831 33.70117188 54.71313477 C34.73563999 56.66415111 35.76266464 58.61894798 36.7890625 60.57421875 C37.40475098 61.73526123 38.02043945 62.89630371 38.65478516 64.0925293 C40 67 40 67 40 70 C36.04 70 32.08 70 28 70 C22.66666667 59.33333333 17.33333333 48.66666667 12 38 C11.67 48.23 11.34 58.46 11 69 C7.37 69 3.74 69 0 69 C0 46.23 0 23.46 0 0 Z " fill="#06A49F" transform="translate(339,42)"/>
<path d="M0 0 C6.6 0 13.2 0 20 0 C20 5.94 20 11.88 20 18 C13.4 18 6.8 18 0 18 C0 12.06 0 6.12 0 0 Z " fill="#EFF9F8" transform="translate(133,62)"/>
<path d="M0 0 C6.27 0 12.54 0 19 0 C19 5.94 19 11.88 19 18 C12.73 18 6.46 18 0 18 C0 12.06 0 6.12 0 0 Z " fill="#FAFDFD" transform="translate(162,62)"/>
<path d="M0 0 C1.32 0 2.64 0 4 0 C5.33891561 3.28942366 6.67017703 6.58189109 8 9.875 C8.3815625 10.81214844 8.763125 11.74929687 9.15625 12.71484375 C9.5171875 13.61074219 9.878125 14.50664062 10.25 15.4296875 C10.75273437 16.67081299 10.75273437 16.67081299 11.265625 17.93701172 C12 20 12 20 12 22 C10.68 22 9.36 22 8 22 C7.505 19.525 7.505 19.525 7 17 C5.3739713 17.06000106 3.74898451 17.1487885 2.125 17.25 C1.22007812 17.29640625 0.31515625 17.3428125 -0.6171875 17.390625 C-3.17110544 17.75611148 -3.17110544 17.75611148 -4.3203125 20.046875 C-4.54460937 20.69140625 -4.76890625 21.3359375 -5 22 C-6.32 21.67 -7.64 21.34 -9 21 C-7.69167236 17.6858367 -6.37764349 14.37396387 -5.0625 11.0625 C-4.68931641 10.11697266 -4.31613281 9.17144531 -3.93164062 8.19726562 C-3.57392578 7.29814453 -3.21621094 6.39902344 -2.84765625 5.47265625 C-2.51773682 4.64000244 -2.18781738 3.80734863 -1.84790039 2.94946289 C-1 1 -1 1 0 0 Z " fill="#14A9A4" transform="translate(236,132)"/>
<path d="M0 0 C3.3 0 6.6 0 10 0 C10 3.96 10 7.92 10 12 C10.99 12 11.98 12 13 12 C13 14.64 13 17.28 13 20 C12.01 20 11.02 20 10 20 C10 18.35 10 16.7 10 15 C6.04 15 2.08 15 -2 15 C-2 16.65 -2 18.3 -2 20 C-2.99 20 -3.98 20 -5 20 C-5 17.36 -5 14.72 -5 12 C-4.34 11.67 -3.68 11.34 -3 11 C-2.08719862 8.42562419 -2.08719862 8.42562419 -1.375 5.4375 C-1.11460937 4.42558594 -0.85421875 3.41367188 -0.5859375 2.37109375 C-0.39257812 1.58863281 -0.19921875 0.80617187 0 0 Z " fill="#0CA6A1" transform="translate(254,139)"/>
<path d="M0 0 C0.66 0 1.32 0 2 0 C2.84371205 3.70605005 3.6731088 7.41516381 4.5 11.125 C4.73847656 12.17171875 4.97695313 13.2184375 5.22265625 14.296875 C5.44824219 15.31523438 5.67382812 16.33359375 5.90625 17.3828125 C6.11572266 18.31496582 6.32519531 19.24711914 6.54101562 20.20751953 C7 23 7 23 7 29 C3.04 29 -0.92 29 -5 29 C-4.35299955 19.13324315 -2.12620288 9.6321935 0 0 Z " fill="#F4FBFB" transform="translate(405,57)"/>
<path d="M0 0 C0.66 0 1.32 0 2 0 C2.83963669 4.08206348 3.67061559 8.1658422 4.5 12.25 C4.73847656 13.40886719 4.97695313 14.56773438 5.22265625 15.76171875 C5.44824219 16.87675781 5.67382812 17.99179688 5.90625 19.140625 C6.11572266 20.16704102 6.32519531 21.19345703 6.54101562 22.25097656 C7 25 7 25 7 29 C3.04 29 -0.92 29 -5 29 C-4.35299955 19.13324315 -2.12620288 9.6321935 0 0 Z " fill="#F6FBFB" transform="translate(308,57)"/>
<path d="M0 0 C1.65 0 3.3 0 5 0 C6.32 2.31 7.64 4.62 9 7 C9.31453125 6.4946875 9.6290625 5.989375 9.953125 5.46875 C10.59507812 4.49421875 10.59507812 4.49421875 11.25 3.5 C11.66765625 2.8503125 12.0853125 2.200625 12.515625 1.53125 C13.00546875 1.0259375 13.4953125 0.520625 14 0 C15.32 0 16.64 0 18 0 C18 4.95 18 9.9 18 15 C17.01 15 16.02 15 15 15 C14.67 12.03 14.34 9.06 14 6 C12.68 8.31 11.36 10.62 10 13 C9.34 13 8.68 13 8 13 C6.375 10.5 6.375 10.5 5 8 C4.67 10.31 4.34 12.62 4 15 C2.68 15 1.36 15 0 15 C0 10.05 0 5.1 0 0 Z " fill="#15A9A5" transform="translate(269,139)"/>
<path d="M0 0 C3.26304994 0.75301153 4.47291251 1.87028751 6.4375 4.5625 C6.4375 6.2125 6.4375 7.8625 6.4375 9.5625 C3.1375 9.5625 -0.1625 9.5625 -3.5625 9.5625 C-2.5725 11.0475 -2.5725 11.0475 -1.5625 12.5625 C2.02107241 12.81265873 2.02107241 12.81265873 5.4375 12.5625 C5.4375 13.5525 5.4375 14.5425 5.4375 15.5625 C2.30889505 17.12680248 -0.11852925 16.91877284 -3.5625 16.5625 C-6.4861459 14.0136805 -7.41159176 12.36734394 -8.125 8.5625 C-7.24128756 3.84936699 -4.74176112 1.04087439 0 0 Z " fill="#45BBB7" transform="translate(388.5625,137.4375)"/>
<path d="M0 0 C0.99 0 1.98 0 3 0 C3 5.28 3 10.56 3 16 C1.68 16 0.36 16 -1 16 C-1.33 13.36 -1.66 10.72 -2 8 C-2.39832031 8.5775 -2.79664063 9.155 -3.20703125 9.75 C-3.73683594 10.4925 -4.26664062 11.235 -4.8125 12 C-5.33457031 12.7425 -5.85664063 13.485 -6.39453125 14.25 C-6.92433594 14.8275 -7.45414062 15.405 -8 16 C-8.99 16 -9.98 16 -11 16 C-11 11.05 -11 6.1 -11 1 C-9.68 1 -8.36 1 -7 1 C-6.67 3.31 -6.34 5.62 -6 8 C-5.60167969 7.4225 -5.20335937 6.845 -4.79296875 6.25 C-4.26316406 5.5075 -3.73335938 4.765 -3.1875 4 C-2.66542969 3.2575 -2.14335937 2.515 -1.60546875 1.75 C-1.07566406 1.1725 -0.54585938 0.595 0 0 Z " fill="#1EADA8" transform="translate(302,138)"/>
<path d="M0 0 C2.1484375 1.62890625 2.1484375 1.62890625 4 4 C4.390625 7.015625 4.390625 7.015625 4.25 10.25 C4.21390625 11.32765625 4.1778125 12.4053125 4.140625 13.515625 C4.07101562 14.74539062 4.07101562 14.74539062 4 16 C2.02090602 16.02686553 0.04171029 16.04633375 -1.9375 16.0625 C-3.03964844 16.07410156 -4.14179688 16.08570313 -5.27734375 16.09765625 C-8 16 -8 16 -9 15 C-9.3125 12.625 -9.3125 12.625 -9 10 C-6.76261752 7.59688549 -5.53659096 7.03658575 -2.25 6.8125 C-1.13625 6.9053125 -1.13625 6.9053125 0 7 C-0.33 6.01 -0.66 5.02 -1 4 C-3.31 4 -5.62 4 -8 4 C-7.67 3.01 -7.34 2.02 -7 1 C-4.4086487 -0.29567565 -2.87704151 -0.34250494 0 0 Z " fill="#24AFAA" transform="translate(358,138)"/>
<path d="M0 0 C1.32 0 2.64 0 4 0 C4 5.28 4 10.56 4 16 C2.68 16 1.36 16 0 16 C0 13.69 0 11.38 0 9 C-1.98 9 -3.96 9 -6 9 C-6 11.31 -6 13.62 -6 16 C-7.32 16 -8.64 16 -10 16 C-10 11.05 -10 6.1 -10 1 C-8.68 1 -7.36 1 -6 1 C-6 2.98 -6 4.96 -6 7 C-4.02 7 -2.04 7 0 7 C0 4.69 0 2.38 0 0 Z " fill="#19ABA6" transform="translate(318,138)"/>
<path d="M0 0 C1.32 0 2.64 0 4 0 C4 1.65 4 3.3 4 5 C4.94875 5.12375 5.8975 5.2475 6.875 5.375 C10 6 10 6 12 8 C11.75 11.0625 11.75 11.0625 11 14 C7.57067929 15.71466036 3.78283935 15.05404056 0 15 C0 10.05 0 5.1 0 0 Z " fill="#12A8A4" transform="translate(416,139)"/>
<path d="M0 0 C3.3 0 6.6 0 10 0 C10 4.95 10 9.9 10 15 C9.01 15 8.02 15 7 15 C7 10.71 7 6.42 7 2 C5.68 2 4.36 2 3 2 C2.96261719 2.60328125 2.92523438 3.2065625 2.88671875 3.828125 C2.59332813 7.39483453 2.33054396 10.32238487 0.75 13.5625 C-1 15 -1 15 -3.6875 15.25 C-4.450625 15.1675 -5.21375 15.085 -6 15 C-6 14.01 -6 13.02 -6 12 C-5.01 11.67 -4.02 11.34 -3 11 C-1.96961044 8.43957934 -1.96961044 8.43957934 -1.3125 5.4375 C-1.06113281 4.42558594 -0.80976563 3.41367188 -0.55078125 2.37109375 C-0.36902344 1.58863281 -0.18726563 0.80617187 0 0 Z " fill="#11A8A3" transform="translate(402,139)"/>
<path d="M0 0 C0.99 0 1.98 0 3 0 C3.33 1.65 3.66 3.3 4 5 C6.97 5.495 6.97 5.495 10 6 C10 4.02 10 2.04 10 0 C10.99 0 11.98 0 13 0 C13 4.95 13 9.9 13 15 C12.01 15 11.02 15 10 15 C10 12.69 10 10.38 10 8 C7.69 8 5.38 8 3 8 C3 10.31 3 12.62 3 15 C2.01 15 1.02 15 0 15 C0 10.05 0 5.1 0 0 Z " fill="#03A39E" transform="translate(365,139)"/>
<path d="M0 0 C4.29 0 8.58 0 13 0 C13 4.95 13 9.9 13 15 C12.01 15 11.02 15 10 15 C10 10.71 10 6.42 10 2 C7.69 2 5.38 2 3 2 C3 6.29 3 10.58 3 15 C2.01 15 1.02 15 0 15 C0 10.05 0 5.1 0 0 Z " fill="#03A39E" transform="translate(333,139)"/>
<path d="M0 0 C1.32 0.33 2.64 0.66 4 1 C4 3.97 4 6.94 4 10 C2.02 10 0.04 10 -2 10 C-1.85950482 8.52031676 -1.71245174 7.04125484 -1.5625 5.5625 C-1.48128906 4.73878906 -1.40007812 3.91507813 -1.31640625 3.06640625 C-1 1 -1 1 0 0 Z " fill="#D2EEED" transform="translate(257,141)"/>
<path d="M0 0 C0.78375 0.04125 1.5675 0.0825 2.375 0.125 C1.6325 0.805625 1.6325 0.805625 0.875 1.5 C-0.85109337 3.00135519 -0.85109337 3.00135519 -0.625 5.125 C0.83333358 6.75014468 0.83333358 6.75014468 2.375 8.125 C0.37545254 8.16754356 -1.62541636 8.16580783 -3.625 8.125 C-4.625 7.125 -4.625 7.125 -4.8125 4.6875 C-4.54653904 1.05270021 -3.63803315 0.17323967 0 0 Z " fill="#0EA7A2" transform="translate(353.625,145.875)"/>
<path d="M0 0 C2 1 2 1 2.6328125 2.84765625 C2.79523438 3.57855469 2.95765625 4.30945313 3.125 5.0625 C3.29257813 5.79597656 3.46015625 6.52945313 3.6328125 7.28515625 C3.75398437 7.85105469 3.87515625 8.41695312 4 9 C1.69 9 -0.62 9 -3 9 C-2.01 6.03 -1.02 3.06 0 0 Z " fill="#D8F1F0" transform="translate(237,137)"/>
<path d="M0 0 C2.31 0.33 4.62 0.66 7 1 C7.33 2.98 7.66 4.96 8 7 C5.03 7 2.06 7 -1 7 C-1 6.67 -1 6.34 -1 6 C0.98 6 2.96 6 5 6 C4.67 4.68 4.34 3.36 4 2 C2.35 2.33 0.7 2.66 -1 3 C-0.67 2.01 -0.34 1.02 0 0 Z " fill="#0DA6A1" transform="translate(387,139)"/>
<path d="M0 0 C0 1.32 0 2.64 0 4 C-1.65 4.33 -3.3 4.66 -5 5 C-5 3.68 -5 2.36 -5 1 C-3 0 -3 0 0 0 Z " fill="#CDECEC" transform="translate(358,147)"/>
<path d="M0 0 C1.65 0 3.3 0 5 0 C5 1.32 5 2.64 5 4 C3.35 4 1.7 4 0 4 C0 2.68 0 1.36 0 0 Z " fill="#E0F3F3" transform="translate(419,147)"/>
</svg>
